<svg aria-hidden="true" style="position: absolute; width: 0; height: 0; overflow: hidden;" version="1.1" xmlns="http://www.w3.org/2000/svg" xmlns:xlink="http://www.w3.org/1999/xlink">
<defs>

<symbol id="icon-closeblack" viewBox="0 0 32 32">
<path d="M26.667 7.303l-1.97-1.97-7.808 7.808-7.808-7.808-1.97 1.97 7.808 7.808-7.808 7.808 1.97 1.97 7.808-7.808 7.808 7.808 1.97-1.97-7.808-7.808 7.808-7.808z"></path>
</symbol>

<symbol id="icon-favourite" viewBox="0 0 37 32">
<path fill="#878686" style="fill: var(--color1, #878686); stroke: var(--color1, #878686)" stroke="#878686" stroke-linejoin="miter" stroke-linecap="butt" stroke-miterlimit="4" stroke-width="0.6857" d="M18.286 29.714c-0.456 0-0.895-0.159-1.237-0.448-1.293-1.089-2.539-2.112-3.639-3.015l-0.006-0.005c-3.224-2.647-6.008-4.933-7.945-7.184-2.165-2.517-3.174-4.904-3.174-7.511 0-2.533 0.902-4.87 2.539-6.581 1.656-1.731 3.929-2.684 6.401-2.684 1.847 0 3.539 0.563 5.028 1.672 0.751 0.56 1.433 1.245 2.033 2.045 0.6-0.799 1.281-1.485 2.033-2.045 1.489-1.11 3.181-1.672 5.028-1.672 2.471 0 4.744 0.953 6.401 2.684 1.637 1.711 2.538 4.048 2.538 6.581 0 2.607-1.008 4.994-3.174 7.511-1.937 2.252-4.721 4.538-7.944 7.184-1.102 0.904-2.35 1.929-3.645 3.021-0.342 0.288-0.782 0.447-1.237 0.447zM11.225 4.092c-1.942 0-3.725 0.747-5.023 2.102-1.317 1.376-2.042 3.279-2.042 5.357 0 2.193 0.846 4.154 2.743 6.359 1.833 2.131 4.56 4.37 7.717 6.962l0.006 0.005c1.104 0.906 2.355 1.934 3.657 3.031 1.31-1.099 2.563-2.128 3.669-3.036 3.157-2.592 5.883-4.831 7.717-6.962 1.896-2.205 2.742-4.166 2.742-6.359 0-2.078-0.725-3.981-2.042-5.357-1.297-1.356-3.081-2.102-5.023-2.102-1.422 0-2.728 0.436-3.881 1.295-1.028 0.766-1.743 1.734-2.163 2.411-0.216 0.348-0.596 0.556-1.016 0.556s-0.801-0.208-1.016-0.556c-0.419-0.677-1.135-1.646-2.163-2.411-1.153-0.859-2.459-1.295-3.881-1.295z"></path>
</symbol>

<symbol id="icon-share" viewBox="0 0 32 32">
<path fill="#878686" style="fill: var(--color1, #878686)" d="M25.436 21.333c-1.623 0-3.079 0.73-4.058 1.878l-9.632-5.955c0.098-0.403 0.151-0.824 0.151-1.256s-0.053-0.853-0.151-1.256l9.632-5.955c0.979 1.148 2.434 1.878 4.058 1.878 2.941 0 5.333-2.393 5.333-5.333s-2.393-5.333-5.333-5.333-5.333 2.393-5.333 5.333c0 0.433 0.053 0.853 0.151 1.256l-9.632 5.955c-0.979-1.148-2.434-1.878-4.058-1.878-2.941 0-5.333 2.393-5.333 5.333s2.393 5.333 5.333 5.333c1.624 0 3.079-0.73 4.058-1.878l9.631 5.955c-0.098 0.403-0.151 0.824-0.151 1.256 0 2.941 2.392 5.333 5.333 5.333s5.333-2.393 5.333-5.333c0-2.941-2.393-5.333-5.333-5.333zM25.436 2.462c1.584 0 2.872 1.288 2.872 2.872s-1.288 2.872-2.872 2.872c-1.583 0-2.872-1.288-2.872-2.872s1.288-2.872 2.872-2.872zM6.564 18.872c-1.583 0-2.872-1.288-2.872-2.872s1.288-2.872 2.872-2.872c1.583 0 2.872 1.288 2.872 2.872s-1.288 2.872-2.872 2.872zM25.436 29.538c-1.583 0-2.872-1.288-2.872-2.872s1.288-2.872 2.872-2.872c1.584 0 2.872 1.288 2.872 2.872s-1.288 2.872-2.872 2.872z"></path>
</symbol>

<symbol id="logo" viewBox="0 0 52 32">
<path fill="#ff6b09" style="fill: var(--color1, #ff6b09)" d="M32 16c0 8.837-7.163 16-16 16s-16-7.163-16-16c0-8.837 7.163-16 16-16s16 7.163 16 16z"></path>
<path fill="#fff" style="fill: var(--color2, #fff)" d="M11.996 11.2h2.121v7.436h4.595v1.728h-6.716v-9.164zM24.442 20.521c-0.951 0-1.811-0.205-2.579-0.615-0.759-0.41-1.357-0.973-1.793-1.689-0.428-0.724-0.641-1.536-0.641-2.435s0.214-1.706 0.641-2.422c0.436-0.724 1.034-1.292 1.793-1.702 0.768-0.41 1.628-0.615 2.579-0.615s1.807 0.205 2.566 0.615c0.759 0.41 1.357 0.977 1.793 1.702 0.436 0.716 0.655 1.523 0.655 2.422s-0.218 1.711-0.655 2.435c-0.436 0.716-1.034 1.279-1.793 1.689s-1.615 0.615-2.566 0.615zM24.442 18.714c0.541 0 1.030-0.122 1.466-0.367 0.436-0.253 0.777-0.602 1.021-1.047 0.253-0.445 0.38-0.951 0.38-1.519s-0.127-1.073-0.38-1.519c-0.244-0.445-0.585-0.79-1.021-1.034-0.436-0.253-0.925-0.38-1.466-0.38s-1.030 0.127-1.466 0.38c-0.436 0.244-0.781 0.589-1.034 1.034-0.244 0.445-0.367 0.951-0.367 1.519s0.122 1.073 0.367 1.519c0.253 0.445 0.598 0.794 1.034 1.047 0.436 0.244 0.925 0.367 1.466 0.367zM37.504 15.638h1.937v3.718c-0.497 0.375-1.073 0.663-1.728 0.864s-1.313 0.301-1.977 0.301c-0.951 0-1.807-0.201-2.566-0.602-0.759-0.41-1.357-0.973-1.793-1.689-0.428-0.724-0.641-1.54-0.641-2.448s0.214-1.719 0.641-2.435c0.436-0.724 1.039-1.287 1.807-1.689 0.768-0.41 1.632-0.615 2.592-0.615 0.803 0 1.532 0.135 2.186 0.406s1.204 0.663 1.649 1.178l-1.361 1.257c-0.655-0.689-1.444-1.034-2.369-1.034-0.585 0-1.104 0.122-1.558 0.367s-0.807 0.589-1.060 1.034c-0.253 0.445-0.38 0.956-0.38 1.532 0 0.567 0.127 1.073 0.38 1.519s0.602 0.794 1.047 1.047c0.454 0.244 0.969 0.367 1.545 0.367 0.611 0 1.161-0.131 1.649-0.393v-2.684zM46.111 20.521c-0.951 0-1.811-0.205-2.579-0.615-0.759-0.41-1.357-0.973-1.793-1.689-0.428-0.724-0.641-1.536-0.641-2.435s0.214-1.706 0.641-2.422c0.436-0.724 1.034-1.292 1.793-1.702 0.768-0.41 1.628-0.615 2.579-0.615s1.807 0.205 2.566 0.615c0.759 0.41 1.357 0.977 1.793 1.702 0.436 0.716 0.655 1.523 0.655 2.422s-0.218 1.711-0.655 2.435c-0.436 0.716-1.034 1.279-1.793 1.689s-1.615 0.615-2.566 0.615zM46.111 18.714c0.541 0 1.030-0.122 1.466-0.367 0.436-0.253 0.777-0.602 1.021-1.047 0.253-0.445 0.38-0.951 0.38-1.519s-0.127-1.073-0.38-1.519c-0.244-0.445-0.585-0.79-1.021-1.034-0.436-0.253-0.925-0.38-1.466-0.38s-1.030 0.127-1.466 0.38c-0.436 0.244-0.781 0.589-1.034 1.034-0.244 0.445-0.367 0.951-0.367 1.519s0.122 1.073 0.367 1.519c0.253 0.445 0.598 0.794 1.034 1.047 0.436 0.244 0.925 0.367 1.466 0.367z"></path>
</symbol>

<symbol id="replay" viewBox="0 0 32 32">
<path fill="#5e6671" style="fill: var(--color3, #5e6671)" d="M6.667 16h-5.333l6.667 6.667 6.667-6.667h-5.333c0-4.413 3.587-8 8-8s8 3.587 8 8c0 4.413-3.587 8-8 8v2.667c5.893 0 10.667-4.773 10.667-10.667s-4.773-10.667-10.667-10.667c-5.893 0-10.667 4.773-10.667 10.667z"></path>
</symbol>

<symbol id="search" viewBox="0 0 32 32">
<path d="M20.667 18.667h-1.053l-0.373-0.36c1.307-1.52 2.093-3.493 2.093-5.64 0-4.787-3.88-8.667-8.667-8.667s-8.667 3.88-8.667 8.667c0 4.787 3.88 8.667 8.667 8.667 2.147 0 4.12-0.787 5.64-2.093l0.36 0.373v1.053l6.667 6.653 1.987-1.987-6.653-6.667zM12.667 18.667c-3.32 0-6-2.68-6-6s2.68-6 6-6c3.32 0 6 2.68 6 6s-2.68 6-6 6z"></path>
</symbol>

<symbol id="out" viewBox="0 0 32 32">
<path fill="#5e6671" style="fill: var(--color1, #5e6671)" d="M3.236 21.654v7.111h25.529v-25.529h-25.529v7.111h-2.916v-6.791c0-1.788 1.448-3.236 3.236-3.236h24.889c1.788 0 3.236 1.448 3.236 3.236v24.889c0 1.788-1.448 3.236-3.235 3.236h-24.889c-1.788 0-3.236-1.448-3.236-3.236v-6.791h2.916zM17.964 14.542l-4.915-4.916 2.063-2.063 8.436 8.436-8.436 8.436-2.063-2.063 4.915-4.916h-17.644v-2.915h17.644z"></path>
</symbol>

<symbol id="user" viewBox="0 0 32 32">
<path fill="#5e6671" style="fill: var(--color1, #5e6671)" d="M29.474 32h-3.242c0-5.47-4.588-9.919-10.232-9.919s-10.23 4.45-10.23 9.919h-3.242c0-7.26 6.046-13.161 13.474-13.161 7.427 0 13.472 5.901 13.472 13.161z"></path>
<path fill="#5e6671" style="fill: var(--color1, #5e6671)" d="M16.001 17.785c-4.901 0-8.891-3.991-8.891-8.892-0.002-4.903 3.988-8.893 8.891-8.893 4.904 0 8.894 3.988 8.894 8.893s-3.99 8.892-8.894 8.892zM16.001 3.242c-3.116 0-5.65 2.534-5.65 5.65s2.534 5.65 5.65 5.65c3.118 0 5.652-2.534 5.652-5.65s-2.537-5.65-5.652-5.65z"></path>
</symbol>

<symbol id="tune" viewBox="0 0 32 32">
<path fill="#5e6671" style="fill: var(--color1, #5e6671)" d="M4 22.667v2.667h8v-2.667h-8zM4 6.667v2.667h13.333v-2.667h-13.333zM17.333 28v-2.667h10.667v-2.667h-10.667v-2.667h-2.667v8h2.667zM9.333 12v2.667h-5.333v2.667h5.333v2.667h2.667v-8h-2.667zM28 17.333v-2.667h-13.333v2.667h13.333zM20 12h2.667v-2.667h5.333v-2.667h-5.333v-2.667h-2.667v8z"></path>
</symbol>

<symbol id="burger" viewBox="0 0 32 32">
<path fill="#445361" style="fill: var(--color1, #445361)" d="M1.6 25.6h28.8v-3.2h-28.8v3.2zM1.6 17.6h28.8v-3.2h-28.8v3.2zM1.6 6.4v3.2h28.8v-3.2h-28.8z"></path>
</symbol>

<symbol id="close" viewBox="0 0 32 32">
<path d="M25.333 8.547l-1.88-1.88-7.453 7.453-7.453-7.453-1.88 1.88 7.453 7.453-7.453 7.453 1.88 1.88 7.453-7.453 7.453 7.453 1.88-1.88-7.453-7.453 7.453-7.453z"></path>
</symbol>

</defs>
</svg>
